<svg width="20" height="23" viewBox="0 0 20 23" fill="none" xmlns="http://www.w3.org/2000/svg">
<path d="M4.58175 20.7688H15.4151V20.4937C14.6567 19.8521 13.8172 19.371 12.8963 19.0506C11.9755 18.7294 11.0095 18.5688 9.99841 18.5688C8.9873 18.5688 8.02133 18.7294 7.1005 19.0506C6.17966 19.371 5.34008 19.8521 4.58175 20.4937V20.7688ZM2.41508 19.5037C3.39008 18.5321 4.52325 17.7665 5.81458 17.2069C7.10519 16.6481 8.4998 16.3688 9.99841 16.3688C11.497 16.3688 12.892 16.6481 14.1833 17.2069C15.4739 17.7665 16.6067 18.5321 17.5817 19.5037V5.36875H2.41508V19.5037ZM9.99841 14.1688C8.95119 14.1688 8.05744 13.7929 7.31716 13.0413C6.57689 12.2896 6.20675 11.3821 6.20675 10.3188C6.20675 9.25542 6.57689 8.34792 7.31716 7.59625C8.05744 6.84458 8.95119 6.46875 9.99841 6.46875C11.0456 6.46875 11.9394 6.84458 12.6797 7.59625C13.4199 8.34792 13.7901 9.25542 13.7901 10.3188C13.7901 11.3821 13.4199 12.2896 12.6797 13.0413C11.9394 13.7929 11.0456 14.1688 9.99841 14.1688ZM9.99841 11.9688C10.4498 11.9688 10.8333 11.8082 11.1489 11.487C11.4652 11.1665 11.6234 10.7771 11.6234 10.3188C11.6234 9.86042 11.4652 9.47102 11.1489 9.15055C10.8333 8.82935 10.4498 8.66875 9.99841 8.66875C9.54702 8.66875 9.16352 8.82935 8.84791 9.15055C8.53158 9.47102 8.37341 9.86042 8.37341 10.3188C8.37341 10.7771 8.53158 11.1665 8.84791 11.487C9.16352 11.8082 9.54702 11.9688 9.99841 11.9688ZM1.24841 22.9688C0.696128 22.9688 0.248413 22.521 0.248413 21.9688V4.16875C0.248413 3.61647 0.696128 3.16875 1.24841 3.16875H3.49841V1.96875C3.49841 1.41647 3.94613 0.96875 4.49841 0.96875H4.66508C5.21736 0.96875 5.66508 1.41647 5.66508 1.96875V3.16875H14.3317V1.96875C14.3317 1.41647 14.7795 0.96875 15.3317 0.96875H15.4984C16.0507 0.96875 16.4984 1.41647 16.4984 1.96875V3.16875H18.7484C19.3007 3.16875 19.7484 3.61647 19.7484 4.16875V21.9687C19.7484 22.521 19.3007 22.9688 18.7484 22.9688H1.24841Z" fill="#CDCDCD"/>
</svg>
