<svg width="85" height="40" viewBox="0 0 85 40" fill="none" xmlns="http://www.w3.org/2000/svg">
<rect width="85" height="40" rx="10" fill="#29ABE2"/>
<path d="M25.3622 19.8636C25.3622 21.5291 25.0465 22.946 24.4151 24.1143C23.7887 25.2827 22.9336 26.1751 21.8498 26.7915C20.771 27.4031 19.5579 27.7088 18.2106 27.7088C16.8533 27.7088 15.6353 27.4006 14.5565 26.7841C13.4776 26.1676 12.625 25.2752 11.9986 24.1069C11.3722 22.9386 11.0589 21.5241 11.0589 19.8636C11.0589 18.1982 11.3722 16.7812 11.9986 15.6129C12.625 14.4446 13.4776 13.5547 14.5565 12.9432C15.6353 12.3267 16.8533 12.0185 18.2106 12.0185C19.5579 12.0185 20.771 12.3267 21.8498 12.9432C22.9336 13.5547 23.7887 14.4446 24.4151 15.6129C25.0465 16.7812 25.3622 18.1982 25.3622 19.8636ZM22.0884 19.8636C22.0884 18.7848 21.9268 17.875 21.6037 17.1342C21.2855 16.3935 20.8356 15.8317 20.2539 15.4489C19.6722 15.0661 18.9911 14.8746 18.2106 14.8746C17.43 14.8746 16.7489 15.0661 16.1673 15.4489C15.5856 15.8317 15.1332 16.3935 14.81 17.1342C14.4918 17.875 14.3327 18.7848 14.3327 19.8636C14.3327 20.9425 14.4918 21.8523 14.81 22.593C15.1332 23.3338 15.5856 23.8956 16.1673 24.2784C16.7489 24.6612 17.43 24.8526 18.2106 24.8526C18.9911 24.8526 19.6722 24.6612 20.2539 24.2784C20.8356 23.8956 21.2855 23.3338 21.6037 22.593C21.9268 21.8523 22.0884 20.9425 22.0884 19.8636ZM27.7542 27.5V12.2273H30.9832V18.9613H31.1846L36.6807 12.2273H40.551L34.8834 19.0657L40.6182 27.5H36.7552L32.5716 21.2209L30.9832 23.1598V27.5H27.7542Z" fill="white"/>
<path d="M55 20L61 26L71 14" stroke="white" stroke-width="2" stroke-linecap="round" stroke-linejoin="round"/>
</svg>
