<svg width="44" height="31" viewBox="0 0 44 31" fill="none" xmlns="http://www.w3.org/2000/svg">
<path d="M1 0V31" stroke="#D1D1D1"/>
<path d="M25 5.34277C29.968 5.34277 34 9.37477 34 14.3428C34 19.3108 29.968 23.3428 25 23.3428C20.032 23.3428 16 19.3108 16 14.3428C16 9.37477 20.032 5.34277 25 5.34277ZM25 21.3428C28.867 21.3428 32 18.2098 32 14.3428C32 10.4748 28.867 7.34277 25 7.34277C21.132 7.34277 18 10.4748 18 14.3428C18 18.2098 21.132 21.3428 25 21.3428ZM33 20.8428L35.6247 23.5348C36.0068 23.9267 36.0028 24.553 35.6158 24.94L35.5972 24.9586C35.2102 25.3456 34.5839 25.3496 34.192 24.9675L31.5 22.3428L33 20.8428Z" fill="black"/>
</svg>
