<svg width="32" height="40" viewBox="0 0 32 40" fill="none" xmlns="http://www.w3.org/2000/svg">
<path d="M22.927 0H15.8389V8.15477H22.927V0Z" fill="#2A3647"/>
<path d="M15.8392 14.7871H22.9273V26.2881C22.9597 29.0556 22.1721 31.7702 20.6646 34.0869C19.1761 36.3378 16.3027 39.0159 10.9866 39.0159C5.19613 39.0159 1.8211 36.2776 0 34.777L4.47096 29.262C6.24844 30.7133 7.96049 31.9072 11.0138 31.9072C13.3256 31.9072 14.2471 30.9652 14.7869 30.1437C15.5207 29.0027 15.9003 27.6683 15.8774 26.31L15.8392 14.7871Z" fill="#2A3647"/>
<path d="M12.2239 9.63867H5.13574V16.7584H12.2239V9.63867Z" fill="#29ABE2"/>
<path d="M26.6409 35.6753C26.6409 37.1923 25.8721 38.0084 24.798 38.0084C23.7239 38.0084 23.0205 37.039 23.0205 35.752C23.0205 34.465 23.7457 33.4463 24.858 33.4463C25.9703 33.4463 26.6409 34.4485 26.6409 35.6753ZM23.8438 35.7355C23.8438 36.6501 24.2091 37.3238 24.8362 37.3238C25.4632 37.3238 25.8176 36.6118 25.8176 35.6808C25.8176 34.8647 25.4904 34.098 24.8362 34.098C24.1819 34.098 23.8438 34.8374 23.8438 35.7355Z" fill="#2A3647"/>
<path d="M28.0478 33.5117V37.9369H27.2627V33.5117H28.0478Z" fill="#2A3647"/>
<path d="M28.8975 37.9369V33.5117H29.7698L30.7077 35.3355C30.9491 35.8123 31.1639 36.3023 31.351 36.8032C31.302 36.2555 31.2802 35.6257 31.2802 34.9247V33.5117H31.9999V37.9369H31.1875L30.2387 36.0748C29.9876 35.5857 29.7637 35.0828 29.5681 34.5687C29.5681 35.1164 29.6063 35.7353 29.6063 36.4965V37.9314L28.8975 37.9369Z" fill="#2A3647"/>
</svg>
