<svg width="45" height="45" viewBox="0 0 45 45" fill="none" xmlns="http://www.w3.org/2000/svg">
<rect x="0.5" y="0.5" width="44" height="44" rx="9.5" fill="white"/>
<mask id="mask0_47989_5108" style="mask-type:alpha" maskUnits="userSpaceOnUse" x="6" y="6" width="33" height="33">
<rect x="6.5" y="6.5" width="32" height="32" fill="#091931"/>
</mask>
<g mask="url(#mask0_47989_5108)">
<path d="M15.8335 34.5C15.1002 34.5 14.4724 34.2389 13.9502 33.7167C13.4279 33.1944 13.1668 32.5667 13.1668 31.8333V14.5H11.8335V11.8333H18.5002V10.5H26.5002V11.8333H33.1668V14.5H31.8335V31.8333C31.8335 32.5667 31.5724 33.1944 31.0502 33.7167C30.5279 34.2389 29.9002 34.5 29.1668 34.5H15.8335ZM29.1668 14.5H15.8335V31.8333H29.1668V14.5ZM18.5002 29.1667H21.1668V17.1667H18.5002V29.1667ZM23.8335 29.1667H26.5002V17.1667H23.8335V29.1667Z" fill="#091931"/>
</g>
<rect x="0.5" y="0.5" width="44" height="44" rx="9.5" stroke="#091931"/>
</svg>
