<svg width="139" height="41" viewBox="0 0 139 41" fill="none" xmlns="http://www.w3.org/2000/svg">
<g filter="url(#filter0_d_454_3260)">
<rect x="4" y="4" width="131" height="33" rx="10" fill="#FF3D00"/>
<path d="M33.8722 12.7273H35.7216V22.8395C35.7216 23.8835 35.4755 24.8157 34.9833 25.636C34.4961 26.4513 33.8075 27.0952 32.9176 27.5675C32.0277 28.0348 30.9837 28.2685 29.7855 28.2685C28.5874 28.2685 27.5433 28.0348 26.6534 27.5675C25.7635 27.0952 25.0724 26.4513 24.5803 25.636C24.093 24.8157 23.8494 23.8835 23.8494 22.8395V12.7273H25.6989V22.6903C25.6989 23.4361 25.8629 24.0998 26.1911 24.6815C26.5192 25.2582 26.9865 25.7131 27.593 26.0462C28.2045 26.3743 28.9354 26.5384 29.7855 26.5384C30.6357 26.5384 31.3665 26.3743 31.978 26.0462C32.5895 25.7131 33.0568 25.2582 33.38 24.6815C33.7081 24.0998 33.8722 23.4361 33.8722 22.6903V12.7273ZM39.1762 28V16.5455H40.8765V18.2756H40.9958C41.2046 17.7088 41.5825 17.2489 42.1294 16.896C42.6762 16.543 43.2927 16.3665 43.9788 16.3665C44.108 16.3665 44.2696 16.369 44.4635 16.3739C44.6574 16.3789 44.8041 16.3864 44.9035 16.3963V18.1861C44.8438 18.1712 44.7071 18.1488 44.4933 18.119C44.2845 18.0842 44.0633 18.0668 43.8296 18.0668C43.2728 18.0668 42.7757 18.1836 42.3382 18.4173C41.9056 18.646 41.5626 18.9641 41.309 19.3718C41.0605 19.7745 40.9362 20.2344 40.9362 20.7514V28H39.1762ZM51.2646 32.5341C50.4145 32.5341 49.6837 32.4247 49.0722 32.206C48.4607 31.9922 47.9511 31.7088 47.5434 31.3558C47.1407 31.0078 46.82 30.6349 46.5814 30.2372L47.9834 29.2528C48.1425 29.4616 48.3438 29.7003 48.5874 29.9688C48.8311 30.2422 49.1642 30.4783 49.5867 30.6772C50.0143 30.881 50.5736 30.983 51.2646 30.983C52.1894 30.983 52.9525 30.7592 53.5541 30.3118C54.1556 29.8643 54.4564 29.1634 54.4564 28.2088V25.8821H54.3073C54.178 26.0909 53.9941 26.3494 53.7554 26.6577C53.5218 26.9609 53.1837 27.2319 52.7412 27.4705C52.3037 27.7042 51.7121 27.821 50.9664 27.821C50.0416 27.821 49.2114 27.6023 48.4756 27.1648C47.7448 26.7273 47.1656 26.0909 46.738 25.2557C46.3154 24.4205 46.1041 23.4062 46.1041 22.2131C46.1041 21.0398 46.3105 20.0181 46.7231 19.1481C47.1357 18.2731 47.71 17.5969 48.4458 17.1197C49.1816 16.6374 50.0317 16.3963 50.9962 16.3963C51.7419 16.3963 52.3335 16.5206 52.771 16.7692C53.2135 17.0128 53.5516 17.2912 53.7852 17.6044C54.0239 17.9126 54.2078 18.1662 54.3371 18.3651H54.5161V16.5455H56.2164V28.3281C56.2164 29.3125 55.9926 30.1129 55.5452 30.7294C55.1027 31.3509 54.5061 31.8058 53.7554 32.0941C53.0097 32.3874 52.1794 32.5341 51.2646 32.5341ZM51.205 26.2401C51.911 26.2401 52.5075 26.0785 52.9948 25.7553C53.482 25.4322 53.8524 24.9673 54.1059 24.3608C54.3595 23.7543 54.4862 23.0284 54.4862 22.1832C54.4862 21.358 54.3619 20.6296 54.1134 19.9982C53.8648 19.3668 53.4969 18.8722 53.0097 18.5142C52.5225 18.1562 51.9209 17.9773 51.205 17.9773C50.4593 17.9773 49.8378 18.1662 49.3406 18.544C48.8485 18.9219 48.4781 19.429 48.2295 20.0653C47.9859 20.7017 47.8641 21.4077 47.8641 22.1832C47.8641 22.9787 47.9884 23.6822 48.2369 24.2937C48.4905 24.9002 48.8634 25.3775 49.3556 25.7255C49.8527 26.0685 50.4692 26.2401 51.205 26.2401ZM64.2405 28.2386C63.1368 28.2386 62.1847 27.995 61.3843 27.5078C60.5889 27.0156 59.9749 26.3295 59.5423 25.4496C59.1148 24.5646 58.901 23.5355 58.901 22.3622C58.901 21.1889 59.1148 20.1548 59.5423 19.2599C59.9749 18.3601 60.5764 17.6591 61.347 17.157C62.1226 16.6499 63.0274 16.3963 64.0615 16.3963C64.6581 16.3963 65.2472 16.4957 65.8289 16.6946C66.4106 16.8935 66.9401 17.2166 67.4173 17.6641C67.8946 18.1065 68.2749 18.6932 68.5583 19.424C68.8417 20.1548 68.9834 21.0547 68.9834 22.1236V22.8693H60.1539V21.348H67.1936C67.1936 20.7017 67.0644 20.125 66.8058 19.6179C66.5523 19.1108 66.1894 18.7106 65.7171 18.4173C65.2497 18.1239 64.6979 17.9773 64.0615 17.9773C63.3605 17.9773 62.754 18.1513 62.2419 18.4993C61.7348 18.8423 61.3445 19.2898 61.0711 19.8416C60.7977 20.3935 60.661 20.9851 60.661 21.6165V22.6307C60.661 23.4957 60.8101 24.229 61.1084 24.8306C61.4117 25.4272 61.8318 25.8821 62.3687 26.1953C62.9056 26.5036 63.5296 26.6577 64.2405 26.6577C64.7029 26.6577 65.1205 26.593 65.4933 26.4638C65.8712 26.3295 66.1968 26.1307 66.4703 25.8672C66.7437 25.5987 66.955 25.2656 67.1041 24.8679L68.8044 25.3452C68.6254 25.9219 68.3247 26.429 67.9021 26.8665C67.4795 27.299 66.9575 27.6371 66.336 27.8807C65.7146 28.1193 65.0161 28.2386 64.2405 28.2386ZM73.4205 21.1094V28H71.6606V16.5455H73.3609V18.3352H73.51C73.7785 17.7536 74.1862 17.2862 74.733 16.9332C75.2799 16.5753 75.9859 16.3963 76.8509 16.3963C77.6265 16.3963 78.3051 16.5554 78.8868 16.8736C79.4685 17.1868 79.9209 17.6641 80.2441 18.3054C80.5672 18.9418 80.7288 19.7472 80.7288 20.7216V28H78.9688V20.8409C78.9688 19.9411 78.7352 19.2401 78.2678 18.7379C77.8005 18.2308 77.1592 17.9773 76.3438 17.9773C75.782 17.9773 75.2799 18.0991 74.8374 18.3427C74.3999 18.5863 74.0544 18.9418 73.8009 19.4091C73.5473 19.8764 73.4205 20.4432 73.4205 21.1094ZM88.9263 16.5455V18.0369H82.9902V16.5455H88.9263ZM84.7203 13.8011H86.4803V24.7188C86.4803 25.2159 86.5524 25.5888 86.6966 25.8374C86.8457 26.081 87.0346 26.245 87.2633 26.3295C87.497 26.4091 87.7431 26.4489 88.0016 26.4489C88.1955 26.4489 88.3546 26.4389 88.4789 26.419C88.6032 26.3942 88.7026 26.3743 88.7772 26.3594L89.1351 27.9403C89.0158 27.9851 88.8493 28.0298 88.6355 28.0746C88.4217 28.1243 88.1507 28.1491 87.8226 28.1491C87.3255 28.1491 86.8382 28.0423 86.361 27.8285C85.8887 27.6147 85.4959 27.2891 85.1827 26.8516C84.8745 26.4141 84.7203 25.8622 84.7203 25.196V13.8011Z" fill="white"/>
<g clip-path="url(#clip0_454_3260)">
<path d="M108.5 19.2549C108.7 19.2545 108.894 19.3164 109.054 19.4315L116.623 24.8654C116.721 24.9362 116.805 25.0251 116.868 25.1271C116.931 25.2292 116.973 25.3423 116.991 25.46C117.027 25.6978 116.966 25.94 116.819 26.1334C116.672 26.3267 116.452 26.4554 116.207 26.491C115.962 26.5267 115.713 26.4665 115.514 26.3235L108.5 21.2926L101.486 26.3235C101.387 26.3943 101.276 26.4455 101.157 26.4743C101.038 26.503 100.914 26.5087 100.793 26.491C100.672 26.4734 100.556 26.4327 100.451 26.3713C100.346 26.31 100.255 26.2291 100.182 26.1334C100.109 26.0376 100.056 25.9289 100.027 25.8133C99.9972 25.6978 99.9914 25.5777 100.01 25.46C100.028 25.3423 100.07 25.2292 100.133 25.1271C100.196 25.0251 100.279 24.9362 100.377 24.8654L107.946 19.4315C108.106 19.3164 108.301 19.2545 108.5 19.2549Z" fill="white"/>
<path d="M108.5 14.5C108.699 14.4997 108.894 14.5616 109.054 14.6766L116.623 20.1106C116.822 20.2535 116.954 20.4674 116.991 20.7051C117.027 20.9429 116.965 21.1851 116.818 21.3785C116.671 21.5718 116.451 21.7005 116.207 21.7362C115.962 21.7718 115.713 21.7116 115.514 21.5687L108.5 16.5377L101.486 21.5687C101.287 21.7116 101.038 21.7718 100.793 21.7362C100.549 21.7005 100.329 21.5718 100.182 21.3785C100.035 21.1851 99.9727 20.9429 100.009 20.7051C100.046 20.4674 100.178 20.2535 100.377 20.1106L107.946 14.6766C108.106 14.5616 108.301 14.4997 108.5 14.5Z" fill="white"/>
</g>
</g>
<defs>
<filter id="filter0_d_454_3260" x="0" y="0" width="139" height="41" filterUnits="userSpaceOnUse" color-interpolation-filters="sRGB">
<feFlood flood-opacity="0" result="BackgroundImageFix"/>
<feColorMatrix in="SourceAlpha" type="matrix" values="0 0 0 0 0 0 0 0 0 0 0 0 0 0 0 0 0 0 127 0" result="hardAlpha"/>
<feOffset/>
<feGaussianBlur stdDeviation="2"/>
<feColorMatrix type="matrix" values="0 0 0 0 0 0 0 0 0 0 0 0 0 0 0 0 0 0 0.1 0"/>
<feBlend mode="normal" in2="BackgroundImageFix" result="effect1_dropShadow_454_3260"/>
<feBlend mode="normal" in="SourceGraphic" in2="effect1_dropShadow_454_3260" result="shape"/>
</filter>
<clipPath id="clip0_454_3260">
<rect width="17" height="12" fill="white" transform="translate(117 26.5) rotate(-180)"/>
</clipPath>
</defs>
</svg>
