<svg width="50" height="50" viewBox="0 0 50 50" fill="none" xmlns="http://www.w3.org/2000/svg">
<path d="M10 0.5H49.5V49.5H10C4.75329 49.5 0.5 45.2467 0.5 40V10C0.5 4.75329 4.75329 0.5 10 0.5Z" fill="white"/>
<mask id="mask0_47989_5057" style="mask-type:alpha" maskUnits="userSpaceOnUse" x="9" y="9" width="32" height="32">
<rect x="9" y="9" width="32" height="32" fill="#D9D9D9"/>
</mask>
<g mask="url(#mask0_47989_5057)">
<path d="M18.333 37C17.5997 37 16.9719 36.7389 16.4497 36.2167C15.9275 35.6944 15.6663 35.0667 15.6663 34.3333V17H14.333V14.3333H20.9997V13H28.9997V14.3333H35.6663V17H34.333V34.3333C34.333 35.0667 34.0719 35.6944 33.5497 36.2167C33.0275 36.7389 32.3997 37 31.6663 37H18.333ZM31.6663 17H18.333V34.3333H31.6663V17ZM20.9997 31.6667H23.6663V19.6667H20.9997V31.6667ZM26.333 31.6667H28.9997V19.6667H26.333V31.6667Z" fill="#29ABE2"/>
</g>
<path d="M10 0.5H49.5V49.5H10C4.75329 49.5 0.5 45.2467 0.5 40V10C0.5 4.75329 4.75329 0.5 10 0.5Z" stroke="#29ABE2"/>
</svg>
