<svg width="113" height="41" viewBox="0 0 113 41" fill="none" xmlns="http://www.w3.org/2000/svg">
<g filter="url(#filter0_d_454_3253)">
<rect x="4" y="4" width="105" height="33" rx="10" fill="#7AE229"/>
<path d="M23.8494 28V12.7273H25.6989V26.3594H32.7983V28H23.8494ZM40.0767 28.2386C39.0426 28.2386 38.1353 27.9925 37.3548 27.5004C36.5792 27.0082 35.9727 26.3196 35.5352 25.4347C35.1026 24.5497 34.8864 23.5156 34.8864 22.3324C34.8864 21.1392 35.1026 20.0977 35.5352 19.2077C35.9727 18.3178 36.5792 17.6268 37.3548 17.1346C38.1353 16.6424 39.0426 16.3963 40.0767 16.3963C41.1108 16.3963 42.0156 16.6424 42.7912 17.1346C43.5717 17.6268 44.1783 18.3178 44.6108 19.2077C45.0483 20.0977 45.267 21.1392 45.267 22.3324C45.267 23.5156 45.0483 24.5497 44.6108 25.4347C44.1783 26.3196 43.5717 27.0082 42.7912 27.5004C42.0156 27.9925 41.1108 28.2386 40.0767 28.2386ZM40.0767 26.6577C40.8622 26.6577 41.5085 26.4563 42.0156 26.0536C42.5227 25.6509 42.8981 25.1214 43.1417 24.4652C43.3853 23.8089 43.5071 23.098 43.5071 22.3324C43.5071 21.5668 43.3853 20.8533 43.1417 20.1921C42.8981 19.5309 42.5227 18.9964 42.0156 18.5888C41.5085 18.1811 40.8622 17.9773 40.0767 17.9773C39.2912 17.9773 38.6449 18.1811 38.1378 18.5888C37.6307 18.9964 37.2553 19.5309 37.0117 20.1921C36.7681 20.8533 36.6463 21.5668 36.6463 22.3324C36.6463 23.098 36.7681 23.8089 37.0117 24.4652C37.2553 25.1214 37.6307 25.6509 38.1378 26.0536C38.6449 26.4563 39.2912 26.6577 40.0767 26.6577ZM50.1591 28L46.669 16.5455H48.5185L50.9943 25.3153H51.1136L53.5597 16.5455H55.4389L57.8551 25.2855H57.9744L60.4503 16.5455H62.2997L58.8097 28H57.0795L54.5739 19.2003H54.3949L51.8892 28H50.1591Z" fill="white"/>
<g clip-path="url(#clip0_454_3253)">
<path d="M82.4998 21.7451C82.3004 21.7455 82.1061 21.6836 81.9456 21.5685L74.3771 16.1346C74.2786 16.0638 74.1954 15.9749 74.1323 15.8729C74.0692 15.7708 74.0274 15.6577 74.0092 15.54C73.9725 15.3022 74.0345 15.06 74.1815 14.8666C74.3285 14.6733 74.5484 14.5446 74.793 14.509C75.0376 14.4733 75.2867 14.5335 75.4856 14.6765L82.4998 19.7074L89.5141 14.6765C89.6125 14.6057 89.7244 14.5545 89.8432 14.5257C89.9621 14.497 90.0855 14.4913 90.2066 14.509C90.3277 14.5266 90.4441 14.5673 90.549 14.6287C90.6539 14.69 90.7454 14.7709 90.8182 14.8666C90.891 14.9624 90.9436 15.0711 90.9732 15.1867C91.0028 15.3022 91.0086 15.4223 90.9905 15.54C90.9723 15.6577 90.9305 15.7708 90.8673 15.8729C90.8042 15.9749 90.721 16.0638 90.6226 16.1346L83.0541 21.5685C82.8935 21.6836 82.6993 21.7455 82.4998 21.7451Z" fill="white"/>
<path d="M82.5 26.5C82.3006 26.5003 82.1063 26.4384 81.9458 26.3234L74.3773 20.8894C74.1784 20.7465 74.046 20.5326 74.0094 20.2949C73.9727 20.0571 74.0346 19.8149 74.1816 19.6215C74.3286 19.4282 74.5486 19.2995 74.7932 19.2638C75.0378 19.2282 75.2869 19.2884 75.4858 19.4313L82.5 24.4623L89.5142 19.4313C89.7131 19.2884 89.9622 19.2282 90.2068 19.2638C90.4514 19.2995 90.6714 19.4282 90.8184 19.6215C90.9653 19.8149 91.0273 20.0571 90.9906 20.2949C90.954 20.5327 90.8216 20.7465 90.6227 20.8894L83.0542 26.3234C82.8937 26.4384 82.6994 26.5003 82.5 26.5Z" fill="white"/>
</g>
</g>
<defs>
<filter id="filter0_d_454_3253" x="0" y="0" width="113" height="41" filterUnits="userSpaceOnUse" color-interpolation-filters="sRGB">
<feFlood flood-opacity="0" result="BackgroundImageFix"/>
<feColorMatrix in="SourceAlpha" type="matrix" values="0 0 0 0 0 0 0 0 0 0 0 0 0 0 0 0 0 0 127 0" result="hardAlpha"/>
<feOffset/>
<feGaussianBlur stdDeviation="2"/>
<feColorMatrix type="matrix" values="0 0 0 0 0 0 0 0 0 0 0 0 0 0 0 0 0 0 0.1 0"/>
<feBlend mode="normal" in2="BackgroundImageFix" result="effect1_dropShadow_454_3253"/>
<feBlend mode="normal" in="SourceGraphic" in2="effect1_dropShadow_454_3253" result="shape"/>
</filter>
<clipPath id="clip0_454_3253">
<rect width="17" height="12" fill="white" transform="translate(74 14.5)"/>
</clipPath>
</defs>
</svg>
