<svg width="151" height="41" viewBox="0 0 151 41" fill="none" xmlns="http://www.w3.org/2000/svg">
<g filter="url(#filter0_d_454_3237)">
<rect x="4" y="4" width="143" height="33" rx="10" fill="#FFA800"/>
<path d="M23.8494 12.7273H26.0568L31.2472 25.4048H31.4261L36.6165 12.7273H38.8239V28H37.0938V16.3963H36.9446L32.1719 28H30.5014L25.7287 16.3963H25.5795V28H23.8494V12.7273ZM47.096 28.2386C45.9923 28.2386 45.0402 27.995 44.2398 27.5078C43.4443 27.0156 42.8303 26.3295 42.3978 25.4496C41.9703 24.5646 41.7565 23.5355 41.7565 22.3622C41.7565 21.1889 41.9703 20.1548 42.3978 19.2599C42.8303 18.3601 43.4319 17.6591 44.2025 17.157C44.9781 16.6499 45.8829 16.3963 46.917 16.3963C47.5136 16.3963 48.1027 16.4957 48.6844 16.6946C49.2661 16.8935 49.7955 17.2166 50.2728 17.6641C50.7501 18.1065 51.1304 18.6932 51.4138 19.424C51.6972 20.1548 51.8389 21.0547 51.8389 22.1236V22.8693H43.0093V21.348H50.0491C50.0491 20.7017 49.9198 20.125 49.6613 19.6179C49.4078 19.1108 49.0448 18.7106 48.5725 18.4173C48.1052 18.1239 47.5534 17.9773 46.917 17.9773C46.216 17.9773 45.6095 18.1513 45.0974 18.4993C44.5903 18.8423 44.2 19.2898 43.9266 19.8416C43.6531 20.3935 43.5164 20.9851 43.5164 21.6165V22.6307C43.5164 23.4957 43.6656 24.229 43.9639 24.8306C44.2671 25.4272 44.6872 25.8821 45.2242 26.1953C45.7611 26.5036 46.385 26.6577 47.096 26.6577C47.5583 26.6577 47.9759 26.593 48.3488 26.4638C48.7267 26.3295 49.0523 26.1307 49.3257 25.8672C49.5992 25.5987 49.8105 25.2656 49.9596 24.8679L51.6599 25.3452C51.4809 25.9219 51.1801 26.429 50.7575 26.8665C50.335 27.299 49.8129 27.6371 49.1915 27.8807C48.57 28.1193 47.8715 28.2386 47.096 28.2386ZM58.8414 28.2386C57.8868 28.2386 57.0441 27.9975 56.3133 27.5153C55.5825 27.0281 55.0107 26.342 54.5981 25.457C54.1855 24.5671 53.9791 23.5156 53.9791 22.3026C53.9791 21.0994 54.1855 20.0554 54.5981 19.1705C55.0107 18.2855 55.585 17.6019 56.3208 17.1197C57.0566 16.6374 57.9067 16.3963 58.8712 16.3963C59.6169 16.3963 60.2061 16.5206 60.6386 16.7692C61.0761 17.0128 61.4092 17.2912 61.6379 17.6044C61.8715 17.9126 62.053 18.1662 62.1823 18.3651H62.3314V12.7273H64.0914V28H62.3911V26.2401H62.1823C62.053 26.4489 61.8691 26.7124 61.6304 27.0305C61.3918 27.3437 61.0512 27.6246 60.6088 27.8732C60.1663 28.1168 59.5771 28.2386 58.8414 28.2386ZM59.08 26.6577C59.786 26.6577 60.3825 26.4737 60.8698 26.1058C61.357 25.733 61.7274 25.2184 61.9809 24.5621C62.2345 23.9009 62.3612 23.1378 62.3612 22.2727C62.3612 21.4176 62.2369 20.6694 61.9884 20.0281C61.7398 19.3817 61.3719 18.8796 60.8847 18.5217C60.3975 18.1587 59.7959 17.9773 59.08 17.9773C58.3343 17.9773 57.7128 18.1687 57.2156 18.5515C56.7235 18.9293 56.3531 19.4439 56.1045 20.0952C55.8609 20.7415 55.7391 21.4673 55.7391 22.2727C55.7391 23.0881 55.8634 23.8288 56.1119 24.495C56.3655 25.1562 56.7384 25.6832 57.2306 26.076C57.7277 26.4638 58.3442 26.6577 59.08 26.6577ZM67.559 28V16.5455H69.319V28H67.559ZM68.4539 14.6364C68.1109 14.6364 67.8151 14.5195 67.5665 14.2859C67.3229 14.0522 67.2011 13.7713 67.2011 13.4432C67.2011 13.1151 67.3229 12.8342 67.5665 12.6005C67.8151 12.3668 68.1109 12.25 68.4539 12.25C68.797 12.25 69.0903 12.3668 69.3339 12.6005C69.5825 12.8342 69.7068 13.1151 69.7068 13.4432C69.7068 13.7713 69.5825 14.0522 69.3339 14.2859C69.0903 14.5195 68.797 14.6364 68.4539 14.6364ZM79.7612 23.3168V16.5455H81.5211V28H79.7612V26.0611H79.6419C79.3734 26.6428 78.9558 27.1374 78.389 27.5451C77.8223 27.9478 77.1064 28.1491 76.2413 28.1491C75.5254 28.1491 74.889 27.9925 74.3322 27.6793C73.7754 27.3612 73.3379 26.8839 73.0197 26.2475C72.7015 25.6062 72.5424 24.7983 72.5424 23.8239V16.5455H74.3024V23.7045C74.3024 24.5398 74.536 25.206 75.0034 25.7031C75.4757 26.2003 76.0772 26.4489 76.8081 26.4489C77.2456 26.4489 77.6905 26.337 78.1429 26.1133C78.6003 25.8896 78.9831 25.5465 79.2914 25.0842C79.6046 24.6218 79.7612 24.0327 79.7612 23.3168ZM84.7446 28V16.5455H86.4449V18.3352H86.594C86.8327 17.7237 87.218 17.2489 87.7499 16.9109C88.2819 16.5678 88.9207 16.3963 89.6665 16.3963C90.4221 16.3963 91.051 16.5678 91.5532 16.9109C92.0603 17.2489 92.4555 17.7237 92.7389 18.3352H92.8582C93.1515 17.7436 93.5915 17.2738 94.1782 16.9258C94.7648 16.5728 95.4683 16.3963 96.2886 16.3963C97.3128 16.3963 98.1505 16.717 98.8018 17.3583C99.453 17.9947 99.7787 18.9865 99.7787 20.3338V28H98.0187V20.3338C98.0187 19.4886 97.7876 18.8846 97.3252 18.5217C96.8628 18.1587 96.3184 17.9773 95.692 17.9773C94.8866 17.9773 94.2627 18.2209 93.8202 18.7081C93.3778 19.1903 93.1565 19.8018 93.1565 20.5426V28H91.3667V20.1548C91.3667 19.5036 91.1555 18.979 90.7329 18.5813C90.3103 18.1786 89.7659 17.9773 89.0997 17.9773C88.6423 17.9773 88.2148 18.0991 87.817 18.3427C87.4243 18.5863 87.1061 18.9244 86.8625 19.3569C86.6238 19.7844 86.5045 20.2791 86.5045 20.8409V28H84.7446Z" fill="white"/>
<g clip-path="url(#clip0_454_3237)">
<path d="M128.068 23.6667H112.932C112.684 23.6667 112.448 23.5678 112.273 23.3919C112.098 23.2159 112 22.9772 112 22.7284C112 22.4795 112.098 22.2409 112.273 22.0649C112.448 21.889 112.684 21.7901 112.932 21.7901H128.068C128.316 21.7901 128.552 21.889 128.727 22.0649C128.902 22.2409 129 22.4795 129 22.7284C129 22.9772 128.902 23.2159 128.727 23.3919C128.552 23.5678 128.316 23.6667 128.068 23.6667Z" fill="white"/>
<path d="M128.068 19.2099H112.932C112.684 19.2099 112.448 19.111 112.273 18.9351C112.098 18.7591 112 18.5204 112 18.2716C112 18.0228 112.098 17.7841 112.273 17.6081C112.448 17.4322 112.684 17.3333 112.932 17.3333H128.068C128.316 17.3333 128.552 17.4322 128.727 17.6081C128.902 17.7841 129 18.0228 129 18.2716C129 18.5204 128.902 18.7591 128.727 18.9351C128.552 19.111 128.316 19.2099 128.068 19.2099Z" fill="white"/>
</g>
</g>
<defs>
<filter id="filter0_d_454_3237" x="0" y="0" width="151" height="41" filterUnits="userSpaceOnUse" color-interpolation-filters="sRGB">
<feFlood flood-opacity="0" result="BackgroundImageFix"/>
<feColorMatrix in="SourceAlpha" type="matrix" values="0 0 0 0 0 0 0 0 0 0 0 0 0 0 0 0 0 0 127 0" result="hardAlpha"/>
<feOffset/>
<feGaussianBlur stdDeviation="2"/>
<feColorMatrix type="matrix" values="0 0 0 0 0 0 0 0 0 0 0 0 0 0 0 0 0 0 0.1 0"/>
<feBlend mode="normal" in2="BackgroundImageFix" result="effect1_dropShadow_454_3237"/>
<feBlend mode="normal" in="SourceGraphic" in2="effect1_dropShadow_454_3237" result="shape"/>
</filter>
<clipPath id="clip0_454_3237">
<rect width="17" height="6.33333" fill="white" transform="translate(112 17.3333)"/>
</clipPath>
</defs>
</svg>
